<svg id="Слой_1" data-name="Слой 1" xmlns="http://www.w3.org/2000/svg" viewBox="0 0 1000 1000"><defs><style>.cls-1{fill:none;}.cls-2{fill:#f4ecdf;}.cls-3{fill:#ff4f2c;}.cls-4{fill:#095646;}</style></defs><path class="cls-1" d="M739.17,612.56c15.19-5.45,31.8-7.49,49.75-6,7.24.61,14.27,3.62,23.09,6,0-9.34.23-17.12,0-24.89Q809.59,520.35,806.9,453c-.24-5.71-.8-11.82-3-16.94-5.35-12.15-11.8-13.71-24.07-8.64L773,430.21A315,315,0,0,1,775.22,467,310.13,310.13,0,0,1,739.17,612.56Z"/><path class="cls-2" d="M690.57,647.25c14-16.5,30.24-28.1,48.6-34.69A310.13,310.13,0,0,0,775.22,467,315,315,0,0,0,773,430.21c-49.78,20.56-99.66,40.86-149.46,61.36-11.86,4.88-24,9.39-35.16,15.53-10.72,5.89-17.25,15.63-16.89,28.58q1.58,56.76,3.43,113.51c1.19,35.82,3,71.63,3.72,107.45A311.58,311.58,0,0,0,673,697.8C671.6,680.91,677.47,662.75,690.57,647.25Z"/><path class="cls-2" d="M525.15,699.39c11.22,1.68,15.15-.82,14.55-12.39q-3.66-71-6.39-142.11c-.8-20.79-.64-41.61-.94-62.41-.2-14.69,5.63-25.81,19.44-31.77,35.36-15.26,70.73-30.52,106.22-45.47q49.74-20.94,99.59-41.63C715,242.37,599.48,155.46,463.66,155.46,291.6,155.46,152.11,295,152.11,467c0,152.13,109.05,278.77,253.24,306.08a62.36,62.36,0,0,1,9.82-24.22C441.35,709.83,478.15,692.36,525.15,699.39Z"/><path class="cls-3" d="M847.73,657.53c-4.49-70.13-5.32-140.5-8.12-210.75q-1.8-44.89-5.44-89.69c-1.34-16.31-10.95-20.91-26-14.58q-25.23,10.61-50.51,21.1A309.39,309.39,0,0,1,773,430.21l6.74-2.77c12.27-5.07,18.72-3.51,24.07,8.64,2.25,5.12,2.81,11.23,3,16.94q2.77,67.32,5.07,134.67c.27,7.77,0,15.55,0,24.89-8.82-2.36-15.85-5.37-23.09-6-17.95-1.53-34.56.51-49.75,6A312.57,312.57,0,0,1,673,697.8c1.77,22.21,16,42.2,42.81,51,22.86,7.51,44.94,5.57,67-2.39C813.48,735.27,850.61,702.44,847.73,657.53Z"/><path class="cls-3" d="M405.35,773.1c-5.22,30.31,13.92,60.69,47.51,68.41,41.17,9.45,75.4-3.7,104.22-32.62,12.48-12.52,22-27.83,21.74-46.22,0-2-.1-4-.14-6A312.9,312.9,0,0,1,405.35,773.1Z"/><path class="cls-4" d="M571.53,535.68c-.36-12.95,6.17-22.69,16.89-28.58,11.19-6.14,23.3-10.65,35.16-15.53,49.8-20.5,99.68-40.8,149.46-61.36a309.39,309.39,0,0,0-15.42-66.6Q707.81,384.37,658,405.24c-35.49,14.95-70.86,30.21-106.22,45.47-13.81,6-19.64,17.08-19.44,31.77.3,20.8.14,41.62.94,62.41Q536.07,616,539.7,687c.6,11.57-3.33,14.07-14.55,12.39-47-7-83.8,10.44-110,49.49a62.36,62.36,0,0,0-9.82,24.22,312.9,312.9,0,0,0,173.33-16.46C578,720.82,576.15,685,575,649.19Q573.07,592.44,571.53,535.68Z"/><path class="cls-4" d="M739.17,612.56c-18.36,6.59-34.64,18.19-48.6,34.69-13.1,15.5-19,33.66-17.62,50.55A312.57,312.57,0,0,0,739.17,612.56Z"/></svg>