<svg id="Слой_1" data-name="Слой 1" xmlns="http://www.w3.org/2000/svg" viewBox="0 0 1000 1000"><defs><style>.cls-1{fill:none;}.cls-2{fill:#f4ecdf;}.cls-3{fill:#ff4f2c;}.cls-4{fill:#095646;}</style></defs><path class="cls-1" d="M778.89,564.46c-2.91,0-6.33,2.3-8.58,4.49-14.95,14.59-29.66,29.43-44.4,44.24-1.81,1.81-3.28,4-6,7.25,19.22,0,36.68-1,54,.3,15,1.14,25.82-3.17,35.53-14.85,11.64-14,25.12-26.47,39.77-41.64C823.74,564.25,801.31,564.09,778.89,564.46Z"/><path class="cls-1" d="M752.74,331.67c3.16-19.53,6.13-39.09,9.47-60.8-14.56,9.33-26.42,18.78-39.77,25.06a61.25,61.25,0,0,0-18.82,13.15,310.8,310.8,0,0,1,21.1,42.17c8.46-5.45,16.77-10.82,25.07-16.2C751,334.25,752.54,332.93,752.74,331.67Z"/><path class="cls-2" d="M634.26,620.73c20.06,2.26,35.32-3.53,48-19.41,10.39-13,22.53-24.67,33.67-36.69.55.2-.24-.35-1-.35-22.49-.06-45-.24-67.46.12-2.92,0-6.33,2.35-8.58,4.55-15.2,14.84-30.16,29.92-45.14,45-1.57,1.58-2.74,3.54-5,6.48C605.05,620.41,619.82,619.1,634.26,620.73Z"/><path class="cls-2" d="M424.92,563.52c.1-16-2.33-29.19-15.37-39.55-5.31-4.23-9.39-10-14-15.08-11.66-12.78-10.19-23.79,4.71-32.89Q455,442.55,509.92,409.3q92.83-56.46,185.64-112.94c-55.85-83.7-151.14-138.84-259.31-138.84C264.18,157.52,124.7,297,124.7,469.08c0,168.23,133.35,305.3,300.11,311.32C424.67,708.1,424.44,635.81,424.92,563.52Z"/><path class="cls-2" d="M689.89,345.06c-.37,9.92-3,19.76-5,31.87,13.93-9,27.06-17.42,39.86-25.68a310.8,310.8,0,0,0-21.1-42.17C694.89,318.31,690.46,330.13,689.89,345.06Z"/><path class="cls-2" d="M466.36,540.1l.81,1.77h11.91q130.08,0,260.16-.07a313.16,313.16,0,0,0-5.79-166.43q-126.5,77.53-253,155.06C475.59,533.4,471.05,536.87,466.36,540.1Z"/><path class="cls-2" d="M505.53,486c1.49-1,3.42-2.4,3.7-3.89,3.73-19.73,7.19-39.51,11.15-61.68-22.89,14.6-43.59,27.73-64.16,41.06a8.72,8.72,0,0,0-3.35,5.23c-3.58,19.23-6.94,38.51-10.43,58.2,1.64-.23,2.66-.09,3.32-.52Q475.68,505.31,505.53,486Z"/><path class="cls-2" d="M459.19,620.48c17.42,0,34.9-.89,52.25.27,13.92.94,23.92-3.15,33.24-13.69,12.68-14.33,27.13-27.1,41-40.73-1.77-1.28-2.23-1.9-2.69-1.9-14.64-.13-29.41,1-43.89-.56-19.72-2.12-34.28,4.16-46.8,19.56-10.27,12.64-22.93,23.33-34.54,34.88C458.25,619,458.72,619.75,459.19,620.48Z"/><path class="cls-2" d="M633.19,404.26c3.82-19.2,7.48-38.43,11.62-60-17.29,10.76-32.27,21.35-48.4,29.74-14.56,7.58-22.53,17.57-23.71,34.35-.91,13.13-4.67,26.05-7.64,41.5,23.31-14.55,44.42-27.68,65.43-41A7.59,7.59,0,0,0,633.19,404.26Z"/><path class="cls-3" d="M722.44,295.93c13.35-6.28,25.21-15.73,39.77-25.06-3.34,21.71-6.31,41.27-9.47,60.8-.2,1.26-1.72,2.58-3,3.38-8.3,5.38-16.61,10.75-25.07,16.2q4.85,11.83,8.73,24.12,26-15.92,51.95-31.84c14.92-9.14,16.82-15.64,10.16-31.89-4.49-11-9.35-21.82-13.31-33-3-8.57-7.37-15.63-15.69-19.77h-9.38l-61.62,37.48q4.19,6.25,8.06,12.72A61.25,61.25,0,0,1,722.44,295.93Z"/><path class="cls-3" d="M850,541.68q-55.35.14-110.71.12c-32.75,137-156,238.83-303,238.83-3.83,0-7.64-.1-11.44-.23q0,19.07.07,38.15c0,17.25,6.42,23.63,23.78,23.64q200.57,0,401.14.29c11.6,0,19.94-3.29,25.5-13.38V555.24C870,544.89,861.51,541.65,850,541.68Zm-40.5,64.21c-9.71,11.68-20.52,16-35.53,14.85-17.29-1.31-34.75-.3-54-.3,2.68-3.29,4.15-5.44,6-7.25,14.74-14.81,29.45-29.65,44.4-44.24,2.25-2.19,5.67-4.45,8.58-4.49,22.42-.37,44.85-.21,70.33-.21C834.57,579.42,821.09,591.89,809.45,605.89Z"/><path class="cls-4" d="M739.24,541.8q-130.08.11-260.16.07H467.17l-.81-1.77c4.69-3.23,9.23-6.7,14.08-9.67q126.48-77.56,253-155.06-3.87-12.28-8.73-24.12c-12.8,8.26-25.93,16.71-39.86,25.68,2-12.11,4.66-21.95,5-31.87.57-14.93,5-26.75,13.73-36q-3.89-6.46-8.06-12.72-92.8,56.47-185.64,112.94Q455.08,442.66,400.23,476c-14.9,9.1-16.37,20.11-4.71,32.89,4.64,5.08,8.72,10.85,14,15.08,13,10.36,15.47,23.58,15.37,39.55-.48,72.29-.25,144.58-.11,216.88,3.8.13,7.61.23,11.44.23C583.27,780.63,706.49,678.78,739.24,541.8ZM593.71,613.93c15-15.06,29.94-30.14,45.14-45,2.25-2.2,5.66-4.51,8.58-4.55,22.48-.36,45-.18,67.46-.12.79,0,1.58.55,1,.35-11.14,12-23.28,23.66-33.67,36.69-12.67,15.88-27.93,21.67-48,19.41-14.44-1.63-29.21-.32-45.52-.32C591,617.47,592.14,615.51,593.71,613.93Zm-101.4-30.5c12.52-15.4,27.08-21.68,46.8-19.56,14.48,1.56,29.25.43,43.89.56.46,0,.92.62,2.69,1.9-13.88,13.63-28.33,26.4-41,40.73-9.32,10.54-19.32,14.63-33.24,13.69-17.35-1.16-34.83-.27-52.25-.27-.47-.73-.94-1.45-1.42-2.17C469.38,606.76,482,596.07,492.31,583.43Zm80.39-175c1.18-16.78,9.15-26.77,23.71-34.35,16.13-8.39,31.11-19,48.4-29.74-4.14,21.54-7.8,40.77-11.62,60a7.59,7.59,0,0,1-2.7,4.64c-21,13.3-42.12,26.43-65.43,41C568,434.43,571.79,421.51,572.7,408.38ZM452.87,466.75a8.72,8.72,0,0,1,3.35-5.23c20.57-13.33,41.27-26.46,64.16-41.06-4,22.17-7.42,42-11.15,61.68-.28,1.49-2.21,2.93-3.7,3.89q-29.82,19.31-59.77,38.4c-.66.43-1.68.29-3.32.52C445.93,505.26,449.29,486,452.87,466.75Z"/></svg>