<svg xmlns="http://www.w3.org/2000/svg" width="69" height="70" viewBox="0 0 69 70">
  <g id="Group_7" data-name="Group 7" transform="translate(-342 -750)">
    <path id="Rectangle_41" data-name="Rectangle 41" d="M4,0H65a4,4,0,0,1,4,4V35a0,0,0,0,1,0,0H0a0,0,0,0,1,0,0V4A4,4,0,0,1,4,0Z" transform="translate(342 750)" fill="#095646"/>
    <path id="Rectangle_42" data-name="Rectangle 42" d="M0,0H69a0,0,0,0,1,0,0V31a4,4,0,0,1-4,4H4a4,4,0,0,1-4-4V0A0,0,0,0,1,0,0Z" transform="translate(342 785)" fill="#afe2dd"/>
  </g>
</svg>
